<?xml version="1.0" standalone="no"?>
<!DOCTYPE svg PUBLIC "-//W3C//DTD SVG 20010904//EN"
 "http://www.w3.org/TR/2001/REC-SVG-20010904/DTD/svg10.dtd">
<svg version="1.0" xmlns="http://www.w3.org/2000/svg"
 width="896.000000pt" height="896.000000pt" viewBox="0 0 896.000000 896.000000"
 preserveAspectRatio="xMidYMid meet">
<metadata>
Created by potrace 1.11, written by Peter Selinger 2001-2013
</metadata>
<g transform="translate(0.000000,896.000000) scale(0.100000,-0.100000)"
fill="#000000" stroke="none">
<path d="M6254 7509 c-18 -20 -19 -42 -20 -398 0 -231 -4 -375 -10 -374 -5 2
-47 31 -94 65 -47 34 -139 102 -205 150 -66 49 -124 91 -130 96 -5 4 -77 57
-160 117 -82 60 -152 112 -155 115 -21 22 -106 73 -129 76 -31 5 -35 3 -270
-171 -166 -123 -184 -136 -362 -265 -57 -41 -109 -79 -115 -85 -6 -6 -89 -68
-185 -138 -291 -213 -513 -376 -524 -384 -5 -5 -26 -19 -45 -33 -19 -13 -37
-27 -40 -30 -3 -3 -36 -28 -75 -55 -38 -27 -72 -52 -75 -55 -3 -3 -81 -62
-175 -130 -93 -69 -208 -153 -255 -187 -47 -34 -89 -66 -95 -70 -5 -5 -55 -41
-110 -81 -55 -41 -111 -82 -125 -92 -28 -22 -125 -93 -155 -114 -11 -8 -52
-39 -92 -68 -39 -29 -133 -98 -208 -153 -75 -55 -146 -108 -158 -117 -24 -19
-171 -127 -374 -274 -77 -56 -134 -105 -137 -118 -11 -41 -6 -66 20 -88 l25
-23 522 0 522 0 2 -1555 c1 -855 2 -1577 2 -1603 l1 -48 78 3 77 3 3 1652 2
1652 -24 28 -24 28 -433 1 c-239 1 -438 2 -442 3 -5 0 51 45 125 98 73 54 138
101 143 105 9 8 272 201 330 243 11 8 29 21 40 30 19 15 229 170 270 200 11 7
263 193 560 412 298 219 581 427 630 463 48 36 143 106 210 155 67 50 133 98
146 107 13 10 78 58 144 106 281 208 392 289 425 312 19 13 37 27 40 30 3 3
40 31 83 63 85 64 101 66 148 25 14 -13 32 -27 41 -33 24 -15 222 -158 228
-165 3 -3 46 -35 95 -70 50 -36 95 -68 100 -73 6 -4 53 -39 105 -77 52 -38
100 -73 105 -77 58 -46 200 -146 218 -152 31 -12 70 5 88 37 13 23 15 88 15
438 l-1 411 477 0 478 0 0 -819 c0 -686 2 -822 14 -839 12 -18 27 -30 101 -83
36 -26 496 -363 660 -484 87 -64 164 -119 169 -121 6 -2 17 -10 24 -18 7 -7
35 -27 60 -45 26 -18 52 -36 57 -40 6 -5 21 -17 34 -28 14 -11 44 -33 68 -48
74 -47 67 -50 -100 -52 -182 -1 -166 -1 -222 0 -24 1 -49 -1 -55 -5 -5 -3 -10
-2 -10 4 0 6 -11 6 -29 1 -15 -4 -34 -4 -42 0 -7 5 -17 6 -21 3 -12 -7 -102
-8 -114 -1 -5 3 -18 2 -29 -2 -11 -4 -30 -4 -42 1 -12 5 -25 4 -28 -1 -3 -5
-18 -5 -35 0 -17 5 -30 5 -30 1 0 -4 -20 -5 -43 -1 -24 3 -52 3 -63 0 -10 -4
-31 -4 -46 1 -16 4 -28 5 -28 1 0 -4 -16 -7 -35 -7 -19 0 -35 3 -35 7 0 4 -13
3 -30 -2 -17 -5 -32 -5 -35 0 -3 5 -15 6 -28 1 -12 -5 -32 -5 -44 0 -12 4 -25
4 -28 -1 -3 -5 -18 -5 -35 0 -17 5 -30 6 -30 2 0 -4 -16 -7 -35 -7 -19 0 -35
3 -35 7 0 4 -12 3 -28 -1 -15 -5 -37 -5 -49 0 -12 4 -25 4 -28 0 -3 -5 -20 -6
-38 -2 -18 5 -41 5 -52 1 -11 -4 -32 -4 -47 1 -16 4 -28 5 -28 1 0 -4 -16 -7
-35 -7 -19 0 -35 3 -35 7 0 4 -13 3 -30 -2 -17 -5 -32 -5 -35 0 -3 5 -15 6
-28 1 -12 -5 -32 -5 -44 0 -12 4 -25 4 -28 -1 -3 -5 -18 -5 -35 0 -17 5 -30 6
-30 2 0 -4 -16 -7 -35 -7 -19 0 -35 3 -35 7 0 4 -12 3 -28 -1 -15 -5 -37 -5
-49 0 -12 4 -25 4 -28 0 -3 -5 -20 -6 -37 -2 -18 4 -46 4 -63 1 -16 -3 -43 -3
-60 0 -16 4 -45 3 -62 -1 -18 -3 -33 -3 -33 2 0 4 -13 4 -29 -1 -15 -4 -34 -4
-42 0 -7 5 -17 6 -21 3 -12 -7 -102 -8 -114 -1 -5 3 -18 2 -29 -2 -11 -4 -30
-4 -42 1 -12 5 -25 4 -28 -1 -3 -5 -18 -5 -35 0 -19 5 -30 5 -30 -1 0 -6 -5
-7 -11 -4 -5 4 -90 7 -187 6 -355 -1 -331 1 -358 -26 -32 -32 -32 -78 1 -110
13 -14 30 -25 37 -26 7 0 804 -1 1770 -1 1637 -1 1759 0 1783 16 31 21 44 52
36 86 -8 29 -97 97 -763 580 -11 8 -29 23 -39 33 -11 9 -22 17 -25 17 -4 0
-79 53 -109 78 -6 5 -80 59 -165 121 -85 61 -162 117 -170 124 -8 7 -45 34
-82 61 l-68 48 0 839 c0 756 -2 842 -16 864 l-16 25 -603 0 c-599 0 -602 0
-621 -21z"/>
<path d="M3046 7417 c-26 -19 -28 -62 -4 -84 19 -17 68 -18 1017 -19 981 0
996 0 1019 20 28 25 28 50 0 76 -22 20 -29 20 -1018 20 -810 0 -1000 -2 -1014
-13z"/>
<path d="M2062 6772 c-14 -13 -21 -29 -18 -38 3 -9 6 -19 6 -24 0 -5 15 -13
33 -18 44 -14 2002 -11 2016 3 18 19 22 60 7 80 -14 20 -26 20 -1018 20
l-1003 1 -23 -24z"/>
<path d="M1094 5982 c-40 -26 -32 -87 13 -98 20 -6 1871 -10 1988 -5 12 1 28
14 38 30 16 27 16 30 -4 55 l-20 26 -1002 0 c-551 0 -1007 -4 -1013 -8z"/>
<path d="M0 5129 l0 -56 995 0 996 0 14 21 c19 26 19 47 1 72 -14 19 -36 19
-1010 19 l-996 0 0 -56z"/>
<path d="M835 4379 c-126 -3 -231 -6 -231 -7 -1 -1 -5 -13 -8 -26 -9 -38 12
-76 43 -76 218 -5 1983 -1 1998 4 41 13 33 91 -9 101 -32 8 -1514 11 -1793 4z"/>
<path d="M299 3570 c-29 -26 -32 -56 -8 -79 23 -21 24 -21 1013 -21 545 0
1001 3 1013 6 33 9 41 60 15 87 -21 20 -27 20 -1018 21 -874 1 -1000 -1 -1015
-14z"/>
<path d="M626 2757 c-23 -17 -24 -61 -2 -83 16 -15 91 -17 994 -16 537 0 989
1 1004 1 53 2 77 60 40 94 -17 16 -102 17 -1018 17 -816 0 -1004 -2 -1018 -13z"/>
<path d="M278 1948 c-23 -23 -23 -53 1 -77 18 -18 54 -18 1024 -17 656 1 1009
4 1015 11 21 22 22 52 3 76 l-19 24 -1004 0 c-942 0 -1004 -1 -1020 -17z"/>
</g>
</svg>
